<?xml version="1.0" standalone="no"?>
<!DOCTYPE svg PUBLIC "-//W3C//DTD SVG 20010904//EN"
 "http://www.w3.org/TR/2001/REC-SVG-20010904/DTD/svg10.dtd">
<svg version="1.0" xmlns="http://www.w3.org/2000/svg"
 width="256.000000pt" height="256.000000pt" viewBox="0 0 256.000000 256.000000"
 preserveAspectRatio="xMidYMid meet">

<g transform="translate(0.000000,256.000000) scale(0.100000,-0.100000)"
fill="#000000" stroke="none">
<path d="M1261 2218 c-25 -7 -133 -110 -441 -421 -224 -227 -407 -413 -405
-415 1 -2 225 18 496 44 549 52 538 49 584 128 13 23 49 123 80 221 l55 180
-128 128 c-91 91 -137 130 -162 137 -40 11 -34 11 -79 -2z"/>
<path d="M1611 1772 c-24 -86 -54 -181 -67 -210 -30 -69 -119 -159 -165 -166
-37 -6 -984 -116 -1001 -116 -13 0 -1 -50 16 -68 19 -19 1089 112 1126 138 48
34 78 108 125 315 25 109 45 205 45 215 0 9 -8 24 -18 33 -16 15 -20 7 -61
-141z"/>
<path d="M1681 1654 c-32 -160 -49 -221 -73 -266 -40 -74 -100 -135 -147 -148
-20 -5 -243 -39 -496 -75 -252 -36 -460 -67 -462 -69 -1 -1 19 -23 45 -48 l47
-47 490 75 c270 41 500 80 513 86 28 15 77 91 91 143 6 22 26 146 45 275 l35
235 -23 23 -22 23 -43 -207z"/>
<path d="M1796 1750 c-4 -19 -17 -128 -31 -241 -14 -113 -31 -224 -39 -246
-38 -107 -112 -204 -169 -222 -18 -5 -213 -42 -434 -82 -222 -40 -403 -76
-403 -80 0 -17 523 -515 548 -522 73 -20 69 -23 524 431 302 301 431 436 439
460 25 74 14 90 -216 322 l-213 214 -6 -34z"/>
</g>
</svg>
